<svg width="31" height="31" viewBox="0 0 31 31" fill="none" xmlns="http://www.w3.org/2000/svg">
<path d="M27.125 15.5V24.5417C27.125 25.2268 26.8528 25.8839 26.3684 26.3684C25.8839 26.8528 25.2268 27.125 24.5417 27.125H6.45833C5.77319 27.125 5.11611 26.8528 4.63164 26.3684C4.14717 25.8839 3.875 25.2268 3.875 24.5417V6.45833C3.875 5.77319 4.14717 5.11611 4.63164 4.63164C5.11611 4.14717 5.77319 3.875 6.45833 3.875H20.6667" fill="white"/>
<path d="M27.125 15.5V24.5417C27.125 25.2268 26.8528 25.8839 26.3684 26.3684C25.8839 26.8528 25.2268 27.125 24.5417 27.125H6.45833C5.77319 27.125 5.11611 26.8528 4.63164 26.3684C4.14717 25.8839 3.875 25.2268 3.875 24.5417V6.45833C3.875 5.77319 4.14717 5.11611 4.63164 4.63164C5.11611 4.14717 5.77319 3.875 6.45833 3.875H20.6667" stroke="black" stroke-width="2" stroke-linecap="round" stroke-linejoin="round"/>
<path d="M11.625 14.2084L15.5 18.0834L28.4167 5.16669" stroke="black" stroke-width="2" stroke-linecap="round" stroke-linejoin="round"/>
</svg>
