<svg width="108" height="88" viewBox="0 0 108 88" fill="none" xmlns="http://www.w3.org/2000/svg">
<path d="M14.7258 7.99819C10.6596 7.99819 7.3656 11.222 7.3656 15.2018V72.7982C7.3656 76.778 10.6596 80.0018 14.7258 80.0018H93.2742C97.3404 80.0018 100.634 76.778 100.634 72.7982V15.2018C100.634 11.222 97.3404 7.99819 93.2742 7.99819H14.7258ZM93.2742 0.799988C101.407 0.799988 108 7.24759 108 15.2018V72.7982C108 80.7524 101.407 87.2 93.2742 87.2H14.7258C6.5934 87.2 0 80.7524 0 72.7982V15.2018C0 7.24759 6.5934 0.799988 14.7258 0.799988H93.2742ZM44.1018 60.9182H21.6C21.1216 60.9125 20.6467 61.0012 20.2026 61.1792C19.7585 61.3571 19.3539 61.621 19.0118 61.9555C18.6697 62.29 18.397 62.6887 18.2092 63.1288C18.0214 63.5688 17.9221 64.0416 17.9172 64.52C17.9172 66.5072 19.5642 68.1218 21.6 68.1218H44.1018C44.5798 68.1268 45.054 68.0376 45.4975 67.8593C45.941 67.6809 46.345 67.417 46.6865 67.0826C47.028 66.7481 47.3003 66.3496 47.4877 65.91C47.6752 65.4703 47.7743 64.998 47.7792 64.52C47.7743 64.042 47.6752 63.5697 47.4877 63.13C47.3003 62.6903 47.028 62.2919 46.6865 61.9574C46.345 61.623 45.941 61.359 45.4975 61.1807C45.054 61.0024 44.5798 60.9132 44.1018 60.9182ZM74.25 18.7982C66.0204 18.7982 59.319 25.2296 59.319 33.2C59.319 37.3742 61.155 41.1272 64.0926 43.757C58.5306 47.0402 54.8208 52.9532 54.8208 59.7086C54.8208 61.6364 55.1232 63.5318 55.7118 65.3408C56.3328 67.2308 58.4064 68.2784 60.3396 67.6736C60.7958 67.5369 61.2203 67.3107 61.5882 67.0082C61.956 66.7057 62.2599 66.3329 62.4821 65.9116C62.7043 65.4903 62.8404 65.029 62.8823 64.5546C62.9242 64.0801 62.8712 63.6021 62.7264 63.1484C62.3655 62.0376 62.1832 60.8765 62.1864 59.7086C62.1864 53.3636 67.5702 48.1904 74.25 48.1904C80.9298 48.1904 86.319 53.3636 86.319 59.7086C86.319 60.6428 86.2056 61.5554 85.9788 62.441C85.865 62.9038 85.8443 63.3847 85.9179 63.8556C85.9916 64.3265 86.1581 64.7781 86.4079 65.1841C86.6576 65.5901 86.9855 65.9424 87.3726 66.2205C87.7597 66.4986 88.1982 66.697 88.6626 66.8042C89.6017 67.0398 90.5959 66.8966 91.4304 66.4056C92.2649 65.9146 92.8728 65.1152 93.123 64.1798C93.4956 62.7218 93.6792 61.226 93.6792 59.7086C93.6792 52.9532 89.9694 47.0402 84.4074 43.7462C87.345 41.1272 89.181 37.3742 89.181 33.2C89.181 25.2296 82.485 18.7982 74.25 18.7982ZM44.1018 42.0182H21.6C21.1216 42.0125 20.6467 42.1012 20.2026 42.2792C19.7585 42.4571 19.3539 42.721 19.0118 43.0555C18.6697 43.39 18.397 43.7887 18.2092 44.2288C18.0214 44.6688 17.9221 45.1416 17.9172 45.62C17.9172 47.6072 19.5642 49.2218 21.6 49.2218H44.1018C44.5798 49.2268 45.054 49.1376 45.4975 48.9593C45.941 48.7809 46.345 48.517 46.6865 48.1826C47.028 47.8481 47.3003 47.4496 47.4877 47.01C47.6752 46.5703 47.7743 46.098 47.7792 45.62C47.7743 45.142 47.6752 44.6697 47.4877 44.23C47.3003 43.7903 47.028 43.3919 46.6865 43.0574C46.345 42.723 45.941 42.459 45.4975 42.2807C45.054 42.1024 44.5798 42.0132 44.1018 42.0182ZM74.25 26.0018C78.4458 26.0018 81.8208 29.2418 81.8208 33.2C81.8208 37.1636 78.4458 40.3982 74.25 40.3982C70.0542 40.3982 66.6792 37.1582 66.6792 33.2C66.6792 29.2364 70.0542 26.0018 74.25 26.0018ZM44.1018 23.1182H21.6C21.1216 23.1125 20.6467 23.2012 20.2026 23.3792C19.7585 23.5571 19.3539 23.821 19.0118 24.1555C18.6697 24.49 18.397 24.8887 18.2092 25.3288C18.0214 25.7688 17.9221 26.2416 17.9172 26.72C17.9172 28.7072 19.5642 30.3218 21.6 30.3218H44.1018C44.5798 30.3268 45.054 30.2376 45.4975 30.0593C45.941 29.8809 46.345 29.617 46.6865 29.2826C47.028 28.9481 47.3003 28.5496 47.4877 28.11C47.6752 27.6703 47.7743 27.198 47.7792 26.72C47.7743 26.242 47.6752 25.7697 47.4877 25.33C47.3003 24.8903 47.028 24.4919 46.6865 24.1574C46.345 23.823 45.941 23.559 45.4975 23.3807C45.054 23.2024 44.5798 23.1132 44.1018 23.1182Z" fill="black"/>
</svg>
