<svg width="117" height="112" viewBox="0 0 117 112" fill="none" xmlns="http://www.w3.org/2000/svg">
<path d="M20 26H102.74C104.417 26.0001 106.074 26.3514 107.607 27.0314C109.139 27.7114 110.512 28.705 111.637 29.9481C112.762 31.1912 113.614 32.6562 114.138 34.2487C114.662 35.8412 114.847 37.5258 114.68 39.194L111.08 75.194C110.784 78.155 109.398 80.9004 107.192 82.8973C104.985 84.8941 102.116 85.9999 99.14 86H41.84C39.0648 86.0011 36.3751 85.0403 34.2287 83.2812C32.0823 81.522 30.6119 79.0733 30.068 76.352L20 26Z" stroke="black" stroke-width="4" stroke-linejoin="round"/>
<path d="M20 26L15.14 6.542C14.815 5.24452 14.0657 4.09285 13.0112 3.26993C11.9568 2.44701 10.6576 2.00004 9.32 2H2M38 110H50M86 110H98" stroke="black" stroke-width="4" stroke-linecap="round" stroke-linejoin="round"/>
</svg>
