<svg width="125" height="89" viewBox="0 0 125 89" fill="none" xmlns="http://www.w3.org/2000/svg">
<path d="M84.5312 62.125C83.3626 62.125 82.2419 62.5892 81.4156 63.4156C80.5892 64.2419 80.125 65.3626 80.125 66.5312C80.125 67.6999 80.5892 68.8206 81.4156 69.6469C82.2419 70.4733 83.3626 70.9375 84.5312 70.9375H102.156C103.325 70.9375 104.446 70.4733 105.272 69.6469C106.098 68.8206 106.562 67.6999 106.562 66.5312C106.562 65.3626 106.098 64.2419 105.272 63.4156C104.446 62.5892 103.325 62.125 102.156 62.125H84.5312ZM0.8125 22.4688C0.8125 16.6257 3.13364 11.022 7.2653 6.8903C11.397 2.75864 17.0007 0.4375 22.8438 0.4375H102.156C107.999 0.4375 113.603 2.75864 117.735 6.8903C121.866 11.022 124.188 16.6257 124.188 22.4688V66.5312C124.188 72.3743 121.866 77.978 117.735 82.1097C113.603 86.2414 107.999 88.5625 102.156 88.5625H22.8438C17.0007 88.5625 11.397 86.2414 7.2653 82.1097C3.13364 77.978 0.8125 72.3743 0.8125 66.5312V22.4688ZM115.375 26.875V22.4688C115.375 18.9629 113.982 15.6007 111.503 13.1217C109.024 10.6427 105.662 9.25 102.156 9.25H22.8438C19.3379 9.25 15.9757 10.6427 13.4967 13.1217C11.0177 15.6007 9.625 18.9629 9.625 22.4688V26.875H115.375ZM9.625 35.6875V66.5312C9.625 70.0371 11.0177 73.3993 13.4967 75.8783C15.9757 78.3573 19.3379 79.75 22.8438 79.75H102.156C105.662 79.75 109.024 78.3573 111.503 75.8783C113.982 73.3993 115.375 70.0371 115.375 66.5312V35.6875H9.625Z" fill="black"/>
</svg>
